<svg width="44" height="44" viewBox="0 0 44 44" fill="none" xmlns="http://www.w3.org/2000/svg">
<path d="M22 44C34.1503 44 44 34.1503 44 22C44 9.84974 34.1503 0 22 0C9.84974 0 0 9.84974 0 22C0 34.1503 9.84974 44 22 44Z" fill="#000F36"/>
<path d="M21.9994 16.072C23.8609 16.072 25.3699 14.563 25.3699 12.7015C25.3699 10.8401 23.8609 9.33105 21.9994 9.33105C20.1379 9.33105 18.6289 10.8401 18.6289 12.7015C18.6289 14.563 20.1379 16.072 21.9994 16.072Z" fill="#FFAA2E"/>
<path d="M22.0019 24.1453C23.6718 24.1453 25.1579 23.3639 26.0311 22.1689H17.9727C18.8459 23.3639 20.332 24.1453 22.0019 24.1453Z" fill="white"/>
<path d="M22.0019 20.6345C23.6718 20.6345 25.1579 19.8532 26.0311 18.6582H17.9727C18.8459 19.8532 20.332 20.6345 22.0019 20.6345Z" fill="white"/>
<path d="M22.0019 27.6511C23.6718 27.6511 25.1579 26.8698 26.0311 25.6748H17.9727C18.8459 26.8698 20.332 27.6511 22.0019 27.6511Z" fill="white"/>
<path d="M22.0019 31.1609C23.6718 31.1609 25.1579 30.3796 26.0311 29.1846H17.9727C18.8459 30.3796 20.332 31.1609 22.0019 31.1609Z" fill="white"/>
<path d="M22.0019 34.6677C23.6718 34.6677 25.1579 33.8864 26.0311 32.6914H17.9727C18.8459 33.8864 20.332 34.6677 22.0019 34.6677Z" fill="white"/>
</svg>
