<svg xmlns="http://www.w3.org/2000/svg" viewBox="0 0 600 400" role="img" aria-label="Story model benchmark results">
  <defs>
    <linearGradient id="bg" x1="0" y1="0" x2="1" y2="1">
      <stop offset="0" stop-color="#26232c"/>
      <stop offset="1" stop-color="#37304a"/>
    </linearGradient>
    <linearGradient id="winner" x1="0" y1="1" x2="0" y2="0">
      <stop offset="0" stop-color="#7fe0bd" stop-opacity="0.45"/>
      <stop offset="1" stop-color="#7fe0bd"/>
    </linearGradient>
  </defs>
  <rect width="600" height="400" fill="url(#bg)"/>
  <g fill="none" stroke="#eae6f2" stroke-opacity="0.08">
    <path d="M56 72H544M56 136H544M56 200H544M56 264H544M56 328H544"/>
    <path d="M96 56V344M176 56V344M256 56V344M336 56V344M416 56V344M496 56V344"/>
  </g>
  <g transform="translate(70 88)">
    <rect x="0" y="154" width="38" height="78" rx="7" fill="#c9b3ec" fill-opacity="0.55"/>
    <rect x="56" y="114" width="38" height="118" rx="7" fill="#e88d67" fill-opacity="0.7"/>
    <rect x="112" y="66" width="38" height="166" rx="7" fill="url(#winner)"/>
    <rect x="168" y="132" width="38" height="100" rx="7" fill="#c9b3ec" fill-opacity="0.45"/>
    <rect x="224" y="176" width="38" height="56" rx="7" fill="#e88d67" fill-opacity="0.5"/>
    <rect x="280" y="188" width="38" height="44" rx="7" fill="#c9b3ec" fill-opacity="0.35"/>
    <rect x="336" y="202" width="38" height="30" rx="7" fill="#e88d67" fill-opacity="0.38"/>
    <circle cx="131" cy="48" r="12" fill="#7fe0bd"/>
    <path d="m126 48 4 4 8-10" stroke="#26232c" stroke-width="3" stroke-linecap="round" stroke-linejoin="round"/>
  </g>
  <g fill="#eae6f2" font-family="ui-monospace, SFMono-Regular, Menlo, monospace">
    <text x="70" y="54" font-size="17" fill="#bdb6d0" letter-spacing="2">STORY PIPELINE / 07 MODELS</text>
    <text x="70" y="358" font-size="27" font-weight="700">Model benchmark</text>
    <text x="542" y="358" font-size="14" fill="#7fe0bd" text-anchor="end">GLM 5.2</text>
  </g>
</svg>
